<?xml version="1.0" standalone="no"?>
<!DOCTYPE svg PUBLIC "-//W3C//DTD SVG 20010904//EN"
 "http://www.w3.org/TR/2001/REC-SVG-20010904/DTD/svg10.dtd">
<svg version="1.0" xmlns="http://www.w3.org/2000/svg"
 width="700.000000pt" height="700.000000pt" viewBox="0 0 700.000000 700.000000"
 preserveAspectRatio="xMidYMid meet">
<metadata>
Created by potrace 1.14, written by Peter Selinger 2001-2017
</metadata>
<g transform="translate(0.000000,700.000000) scale(0.100000,-0.100000)"
fill="#000000" stroke="none">
<path d="M244 6355 c-52 -26 -92 -72 -113 -128 -27 -70 0 -172 60 -229 64 -62
55 -61 617 -61 282 0 514 -3 516 -6 2 -3 7 -26 10 -51 3 -25 8 -54 10 -66 2
-12 7 -45 11 -75 3 -30 8 -61 10 -69 2 -8 7 -37 10 -65 3 -27 10 -75 15 -105
5 -30 12 -80 15 -110 4 -30 8 -57 10 -60 1 -3 6 -32 9 -65 4 -33 9 -67 11 -75
2 -8 6 -37 10 -65 3 -27 15 -106 25 -175 10 -69 21 -145 25 -170 3 -25 8 -56
10 -70 3 -14 7 -45 10 -70 3 -25 7 -56 10 -70 3 -14 7 -43 10 -65 4 -37 8 -64
21 -150 3 -16 7 -41 9 -55 2 -14 6 -43 9 -65 4 -22 9 -58 11 -79 3 -22 7 -51
10 -65 2 -14 13 -91 25 -171 11 -80 23 -156 25 -170 2 -14 6 -47 10 -75 3 -27
8 -57 10 -65 2 -8 6 -36 9 -62 3 -26 11 -78 17 -115 6 -37 12 -79 14 -93 1
-14 5 -43 9 -65 4 -22 9 -58 11 -80 3 -22 7 -51 10 -65 2 -14 7 -45 10 -70 4
-25 8 -56 10 -70 3 -14 13 -88 24 -166 47 -329 108 -476 256 -617 60 -58 202
-129 295 -148 90 -18 3605 -21 3656 -3 88 30 144 110 145 205 1 91 -46 165
-130 205 -34 17 -148 18 -1771 19 -1438 1 -1742 3 -1778 15 -99 32 -173 137
-197 280 -8 49 -36 235 -41 271 l-5 35 1883 0 c1036 0 1908 4 1938 7 30 4 82
14 115 22 264 70 447 316 490 660 4 28 8 57 10 65 2 8 7 35 10 60 3 25 10 70
15 100 5 30 12 75 15 100 3 25 10 70 15 100 9 52 12 74 25 165 3 22 8 51 10
65 3 14 7 42 10 63 6 47 10 75 41 277 35 236 34 229 45 300 6 36 12 76 14 90
2 14 11 71 19 127 21 133 20 189 -3 238 -25 55 -63 92 -119 118 l-47 22 -2429
3 c-1336 1 -2431 4 -2433 6 -4 3 -19 91 -27 158 -3 21 -7 53 -10 70 -43 267
-49 289 -93 352 -17 24 -51 56 -75 70 -91 53 -105 54 -743 55 l-590 1 -51 -25z
m6131 -1180 c-4 -27 -8 -61 -10 -75 -2 -14 -11 -70 -19 -125 -8 -55 -17 -116
-20 -135 -5 -37 -44 -298 -51 -340 -2 -14 -14 -90 -25 -170 -79 -541 -86 -584
-115 -646 -14 -28 -40 -65 -60 -82 -36 -32 -95 -67 -95 -57 0 3 -8 1 -18 -4
-18 -10 -3807 -20 -3816 -10 -2 2 -16 87 -31 189 -14 102 -28 196 -30 210 -4
21 -23 155 -41 280 -2 19 -6 42 -9 50 -2 8 -6 38 -10 65 -8 69 -15 115 -20
150 -3 17 -7 46 -10 65 -2 19 -14 96 -24 170 -11 74 -23 155 -26 180 -3 25 -8
52 -10 60 -2 8 -7 40 -10 70 -4 30 -12 88 -19 127 -7 40 -8 74 -4 75 5 2 1014
3 2244 3 l2235 0 -6 -50z"/>
<path d="M2618 1554 c-87 -20 -156 -60 -223 -128 -183 -184 -187 -465 -10
-654 56 -60 158 -123 225 -138 48 -11 186 -13 230 -3 124 28 247 123 308 237
167 313 -47 687 -398 698 -41 1 -101 -4 -132 -12z"/>
<path d="M5344 1550 c-281 -77 -426 -387 -305 -654 79 -175 275 -288 471 -273
277 22 474 269 432 541 -44 284 -320 462 -598 386z"/>
</g>
</svg>
