<svg xmlns="http://www.w3.org/2000/svg" version="1.1" width="460px" height="18px">
<g><path fill="#00FF00" d="M -0.5,-0.5 C 1.5,-0.5 3.5,-0.5 5.5,-0.5C 10.7404,2.12959 15.7404,5.29626 20.5,9C 25.5247,12.178 30.5247,12.178 35.5,9C 40.2596,5.29626 45.2596,2.12959 50.5,-0.5C 54.8333,-0.5 59.1667,-0.5 63.5,-0.5C 70.1995,4.51916 77.5329,8.51916 85.5,11.5C 93.4671,8.51916 100.8,4.51916 107.5,-0.5C 111.833,-0.5 116.167,-0.5 120.5,-0.5C 125.74,2.12959 130.74,5.29626 135.5,9C 140.525,12.178 145.525,12.178 150.5,9C 155.26,5.29626 160.26,2.12959 165.5,-0.5C 169.833,-0.5 174.167,-0.5 178.5,-0.5C 185.2,4.51916 192.533,8.51916 200.5,11.5C 208.467,8.51916 215.8,4.51916 222.5,-0.5C 226.833,-0.5 231.167,-0.5 235.5,-0.5C 240.74,2.12959 245.74,5.29626 250.5,9C 255.525,12.178 260.525,12.178 265.5,9C 270.26,5.29626 275.26,2.12959 280.5,-0.5C 284.833,-0.5 289.167,-0.5 293.5,-0.5C 300.2,4.51916 307.533,8.51916 315.5,11.5C 323.467,8.51916 330.8,4.51916 337.5,-0.5C 341.833,-0.5 346.167,-0.5 350.5,-0.5C 355.74,2.12959 360.74,5.29626 365.5,9C 370.525,12.178 375.525,12.178 380.5,9C 385.26,5.29626 390.26,2.12959 395.5,-0.5C 399.833,-0.5 404.167,-0.5 408.5,-0.5C 415.2,4.51916 422.533,8.51916 430.5,11.5C 438.467,8.51916 445.8,4.51916 452.5,-0.5C 454.833,-0.5 457.167,-0.5 459.5,-0.5C 459.5,1.16667 459.5,2.83333 459.5,4.5C 457.801,4.33982 456.134,4.50649 454.5,5C 448.669,8.08121 443.002,11.4145 437.5,15C 432.833,17 428.167,17 423.5,15C 418.565,12.3943 413.898,9.39428 409.5,6C 405.259,4.54268 400.926,4.20935 396.5,5C 391.565,7.60572 386.898,10.6057 382.5,14C 376.167,17.3333 369.833,17.3333 363.5,14C 357.911,9.20544 351.578,6.03877 344.5,4.5C 342.833,4.66667 341.167,4.83333 339.5,5C 333.669,8.08121 328.002,11.4145 322.5,15C 317.833,17 313.167,17 308.5,15C 303.565,12.3943 298.898,9.39428 294.5,6C 290.259,4.54268 285.926,4.20935 281.5,5C 276.565,7.60572 271.898,10.6057 267.5,14C 261.167,17.3333 254.833,17.3333 248.5,14C 242.911,9.20544 236.578,6.03877 229.5,4.5C 227.833,4.66667 226.167,4.83333 224.5,5C 218.669,8.08121 213.002,11.4145 207.5,15C 202.833,17 198.167,17 193.5,15C 188.565,12.3943 183.898,9.39428 179.5,6C 175.259,4.54268 170.926,4.20935 166.5,5C 161.565,7.60572 156.898,10.6057 152.5,14C 146.167,17.3333 139.833,17.3333 133.5,14C 129.102,10.6057 124.435,7.60572 119.5,5C 116.167,4.33333 112.833,4.33333 109.5,5C 103.669,8.08121 98.0021,11.4145 92.5,15C 87.8333,17 83.1667,17 78.5,15C 73.5648,12.3943 68.8981,9.39428 64.5,6C 60.2589,4.54268 55.9255,4.20935 51.5,5C 46.5648,7.60572 41.8981,10.6057 37.5,14C 31.1667,17.3333 24.8333,17.3333 18.5,14C 12.9035,9.20171 6.57018,6.03504 -0.5,4.5C -0.5,2.83333 -0.5,1.16667 -0.5,-0.5 Z"/></g>
</svg>