<?xml version="1.0" standalone="no"?>
<!DOCTYPE svg PUBLIC "-//W3C//DTD SVG 20010904//EN"
 "http://www.w3.org/TR/2001/REC-SVG-20010904/DTD/svg10.dtd">
<svg version="1.0" xmlns="http://www.w3.org/2000/svg"
 width="700.000000pt" height="700.000000pt" viewBox="0 0 700.000000 700.000000"
 preserveAspectRatio="xMidYMid meet">
<metadata>
Created by potrace 1.14, written by Peter Selinger 2001-2017
</metadata>
<g transform="translate(0.000000,700.000000) scale(0.100000,-0.100000)"
fill="#000000" stroke="none">
<path d="M1680 5484 c-431 -58 -837 -264 -1137 -577 -355 -372 -543 -837 -543
-1349 0 -829 539 -1575 1325 -1834 645 -212 1337 -81 1855 351 85 71 226 216
280 288 19 25 37 46 40 46 3 0 30 -32 60 -70 74 -95 235 -249 345 -331 690
-515 1636 -511 2327 10 733 552 976 1555 578 2381 -196 405 -506 715 -912 911
-669 323 -1463 231 -2052 -238 -89 -71 -226 -208 -290 -289 -27 -35 -52 -63
-56 -63 -4 0 -29 28 -56 63 -118 151 -325 331 -509 442 -162 98 -398 193 -575
230 -213 46 -473 57 -680 29z m509 -130 c327 -47 627 -176 880 -378 90 -72
230 -214 296 -301 l55 -72 -74 -144 c-127 -247 -195 -484 -217 -759 -29 -368
61 -768 242 -1084 49 -87 50 -88 33 -114 -36 -57 -147 -183 -223 -255 -715
-672 -1827 -657 -2520 35 -286 285 -457 629 -517 1038 -22 157 -15 429 16 584
153 770 776 1355 1548 1455 114 15 366 12 481 -5z m3215 -14 c743 -148 1303
-717 1442 -1465 23 -124 27 -477 6 -595 -70 -395 -240 -725 -513 -999 -249
-249 -565 -419 -906 -490 -615 -127 -1259 75 -1686 528 -669 712 -657 1822 27
2513 281 284 625 458 1031 523 137 22 457 14 599 -15z"/>
<path d="M1815 4210 c-65 -13 -155 -48 -214 -82 -71 -42 -187 -158 -229 -230
-167 -282 -99 -644 161 -851 116 -93 250 -140 402 -140 183 0 336 64 465 193
320 320 232 850 -175 1051 -124 61 -283 84 -410 59z m496 -399 c20 -20 29 -39
29 -61 0 -43 -47 -90 -90 -90 -43 0 -90 47 -90 90 0 43 47 90 90 90 22 0 41
-9 61 -29z"/>
<path d="M4920 4205 c-84 -19 -211 -82 -276 -137 -155 -131 -237 -307 -237
-508 1 -180 64 -332 193 -460 320 -320 850 -232 1051 175 98 198 89 433 -23
623 -42 72 -158 188 -230 230 -135 80 -328 111 -478 77z m506 -380 c12 -8 27
-28 34 -45 23 -56 -22 -120 -85 -120 -39 0 -69 21 -85 60 -23 56 22 120 85
120 17 0 40 -7 51 -15z"/>
</g>
</svg>
